<svg version="1.1" id="Layer_1" xmlns="http://www.w3.org/2000/svg" xmlns:xlink="http://www.w3.org/1999/xlink" x="0px" y="0px"
	 width="100%" viewBox="0 0 1000 1000" enable-background="new 0 0 1000 1000" xml:space="preserve">
<path fill="#FFFFFF" opacity="1.000000" stroke="none" 
	d="
M472.000000,1001.000000 
	C314.666656,1001.000000 157.833328,1001.000000 1.000000,1001.000000 
	C1.000000,667.666687 1.000000,334.333344 1.000000,1.000000 
	C334.333344,1.000000 667.666687,1.000000 1001.000000,1.000000 
	C1001.000000,334.333344 1001.000000,667.666687 1001.000000,1001.000000 
	C824.833313,1001.000000 648.666687,1001.000000 472.000000,1001.000000 
M328.500000,277.000000 
	C295.747131,277.000000 262.994293,277.000000 230.392670,277.000000 
	C230.392670,434.745605 230.392670,591.794556 230.392670,748.867126 
	C231.445450,748.924866 232.108017,748.992920 232.770569,748.992981 
	C279.101196,748.998718 325.438110,748.522278 371.760681,749.134399 
	C417.963531,749.744873 464.161560,749.410706 510.383728,750.389587 
	C606.001892,752.414734 701.692993,751.000000 797.354065,751.000000 
	C799.124512,751.000000 800.894897,751.000000 802.655029,751.000000 
	C802.655029,609.684570 802.655029,468.968414 802.655029,327.732147 
	C722.257690,327.732147 642.204224,327.732147 561.811890,327.732147 
	C561.811890,310.602234 561.811890,293.990997 561.811890,277.232056 
	C559.081177,277.050720 556.678345,276.891144 553.782349,276.698822 
	C553.782349,247.640594 553.782349,218.915634 553.782349,190.246628 
	C512.653442,190.246628 472.050873,190.246628 430.925690,190.246628 
	C430.925690,219.212921 430.925690,247.937439 430.925690,277.000000 
	C396.768707,277.000000 363.134369,277.000000 328.500000,277.000000 
z"/>
<path fill="#FFC600" opacity="1.000000" stroke="none" 
	d="
M329.000000,277.000000 
	C363.134369,277.000000 396.768707,277.000000 430.925690,277.000000 
	C430.925690,247.937439 430.925690,219.212921 430.925690,190.246628 
	C472.050873,190.246628 512.653442,190.246628 553.782349,190.246628 
	C553.782349,218.915634 553.782349,247.640594 553.782349,276.698822 
	C556.678345,276.891144 559.081177,277.050720 561.811890,277.232056 
	C561.811890,293.990997 561.811890,310.602234 561.811890,327.732147 
	C642.204224,327.732147 722.257690,327.732147 802.655029,327.732147 
	C802.655029,468.968414 802.655029,609.684570 802.655029,751.000000 
	C800.894897,751.000000 799.124512,751.000000 797.354065,751.000000 
	C701.692993,751.000000 606.001892,752.414734 510.383728,750.389587 
	C464.161560,749.410706 417.963531,749.744873 371.760681,749.134399 
	C325.438110,748.522278 279.101196,748.998718 232.770569,748.992981 
	C232.108017,748.992920 231.445450,748.924866 230.392670,748.867126 
	C230.392670,591.794556 230.392670,434.745605 230.392670,277.000000 
	C262.994293,277.000000 295.747131,277.000000 329.000000,277.000000 
z"/>
</svg>